<svg width="24" height="24" viewBox="0 0 24 24" fill="none" xmlns="http://www.w3.org/2000/svg">
    <path d="M3 6H5H21" stroke="#6D7986" stroke-width="1.4" stroke-linecap="round" stroke-linejoin="round"/>
    <path d="M19.7 6C19.7 5.6134 19.3866 5.3 19 5.3C18.6134 5.3 18.3 5.6134 18.3 6H19.7ZM5.7 6C5.7 5.6134 5.3866 5.3 5 5.3C4.6134 5.3 4.3 5.6134 4.3 6H5.7ZM7.3 6C7.3 6.3866 7.6134 6.7 8 6.7C8.3866 6.7 8.7 6.3866 8.7 6H7.3ZM15.3 6C15.3 6.3866 15.6134 6.7 16 6.7C16.3866 6.7 16.7 6.3866 16.7 6H15.3ZM18.3 6V20H19.7V6H18.3ZM18.3 20C18.3 20.718 17.718 21.3 17 21.3V22.7C18.4912 22.7 19.7 21.4912 19.7 20H18.3ZM17 21.3H7V22.7H17V21.3ZM7 21.3C6.28203 21.3 5.7 20.718 5.7 20H4.3C4.3 21.4912 5.50883 22.7 7 22.7V21.3ZM5.7 20V6H4.3V20H5.7ZM8.7 6V4H7.3V6H8.7ZM8.7 4C8.7 3.28203 9.28203 2.7 10 2.7V1.3C8.50883 1.3 7.3 2.50883 7.3 4H8.7ZM10 2.7H14V1.3H10V2.7ZM14 2.7C14.718 2.7 15.3 3.28203 15.3 4H16.7C16.7 2.50883 15.4912 1.3 14 1.3V2.7ZM15.3 4V6H16.7V4H15.3Z" fill="#6D7986"/>
    <path d="M10 11V17" stroke="#6D7986" stroke-width="1.4" stroke-linecap="round" stroke-linejoin="round"/>
    <path d="M14 11V17" stroke="#6D7986" stroke-width="1.4" stroke-linecap="round" stroke-linejoin="round"/>
</svg>